<svg xmlns="http://www.w3.org/2000/svg" data-name="Layer 1" viewBox="0 0 100 125" x="0px" y="0px"><title>Artboard 11</title><path d="M14.62,69.33l-3.93,6.2a1.48,1.48,0,0,0,.2,1.86l4.39,4.38a1.48,1.48,0,0,0,1.86.21L23.35,78a21.41,21.41,0,0,0,3.06,1.26L28,86.47a1.51,1.51,0,0,0,1.47,1.17h6.2a1.51,1.51,0,0,0,1.47-1.17l1.6-7.19a19.56,19.56,0,0,0,3-1.26L48,82a1.48,1.48,0,0,0,1.86-.21l4.4-4.39a1.51,1.51,0,0,0,.2-1.87l-4-6.21a19.4,19.4,0,0,0,1.25-3l7.18-1.6a1.5,1.5,0,0,0,1.18-1.46V57a1.51,1.51,0,0,0-1.18-1.47l-7.18-1.6a19.7,19.7,0,0,0-1.25-3l4-6.22a1.5,1.5,0,0,0-.2-1.86l-4.4-4.4A1.51,1.51,0,0,0,48,38.21l-6.21,3.94a20.59,20.59,0,0,0-3-1.26l-1.6-7.18a1.51,1.51,0,0,0-1.47-1.18h-6.2A1.51,1.51,0,0,0,28,33.71l-1.6,7.16a20.36,20.36,0,0,0-3.06,1.27l-6.21-4a1.5,1.5,0,0,0-1.86.21l-4.39,4.38a1.5,1.5,0,0,0-.2,1.87l3.93,6.2a20.47,20.47,0,0,0-1.27,3.07L6.17,55.53A1.5,1.5,0,0,0,5,57v6.19a1.5,1.5,0,0,0,1.17,1.47l7.18,1.6A20.16,20.16,0,0,0,14.62,69.33Zm8.75-9.24a9.19,9.19,0,1,1,9.18,9.18A9.19,9.19,0,0,1,23.37,60.09Z"/><path d="M93.83,29.1l-5-1.12a15.2,15.2,0,0,0-.76-1.82l2.75-4.33a1.51,1.51,0,0,0-.2-1.87l-3.2-3.2a1.51,1.51,0,0,0-1.87-.2L81.23,19.3a15.34,15.34,0,0,0-1.83-.76l-1.12-5a1.5,1.5,0,0,0-1.47-1.17H72.3a1.51,1.51,0,0,0-1.47,1.17l-1.11,5a15.16,15.16,0,0,0-1.86.77l-4.32-2.75a1.51,1.51,0,0,0-1.87.21l-3.19,3.19a1.5,1.5,0,0,0-.21,1.86L61,26.12A16,16,0,0,0,60.24,28l-5,1.12a1.5,1.5,0,0,0-1.17,1.46v4.51a1.5,1.5,0,0,0,1.18,1.46l5,1.12A16,16,0,0,0,61,39.53l-2.75,4.31a1.51,1.51,0,0,0,.21,1.87l3.19,3.19a1.5,1.5,0,0,0,1.87.2l4.32-2.74a16.91,16.91,0,0,0,1.86.77l1.11,5a1.51,1.51,0,0,0,1.47,1.17h4.51a1.5,1.5,0,0,0,1.47-1.17l1.12-5a15.34,15.34,0,0,0,1.83-.76l4.32,2.74a1.5,1.5,0,0,0,1.87-.21l3.2-3.19a1.51,1.51,0,0,0,.2-1.87l-2.75-4.33a15.2,15.2,0,0,0,.76-1.82l5-1.12A1.5,1.5,0,0,0,95,35.09V30.56A1.5,1.5,0,0,0,93.83,29.1Zm-13,3.72a6.28,6.28,0,1,1-6.27-6.27A6.28,6.28,0,0,1,80.81,32.82Z"/><text x="0" y="115" fill="#000000" font-size="5px" font-weight="bold" font-family="'Helvetica Neue', Helvetica, Arial-Unicode, Arial, Sans-serif">Created by kiddo</text><text x="0" y="120" fill="#000000" font-size="5px" font-weight="bold" font-family="'Helvetica Neue', Helvetica, Arial-Unicode, Arial, Sans-serif">from the Noun Project</text></svg>