<svg xmlns="http://www.w3.org/2000/svg" viewBox="0 0 32 40" x="0px" y="0px"><title>Artboard 15</title><g data-name="Layer 3"><path d="M30.62,12.62a1,1,0,0,0-.81-.68l-8.92-1.3-4-8.08a1,1,0,0,0-1.8,0l-4,8.08-8.92,1.3a1,1,0,0,0-.56,1.71l6.46,6.29L6.57,28.83A1,1,0,0,0,8,29.88l8-4.19,8,4.19a1,1,0,0,0,1.45-1.05l-1.52-8.89,6.46-6.29A1,1,0,0,0,30.62,12.62Z"/></g><text x="0" y="47" fill="#000000" font-size="5px" font-weight="bold" font-family="'Helvetica Neue', Helvetica, Arial-Unicode, Arial, Sans-serif">Created by Nur Jana</text><text x="0" y="52" fill="#000000" font-size="5px" font-weight="bold" font-family="'Helvetica Neue', Helvetica, Arial-Unicode, Arial, Sans-serif">from the Noun Project</text></svg>