<svg xmlns="http://www.w3.org/2000/svg" data-name="Layer 1" viewBox="0 0 512 640" x="0px" y="0px"><title>Experiment</title><path d="M492,136H442v-2.948a47,47,0,1,0-94,0v19.023c0,24.589-20.411,44.593-45,44.593s-45-20-45-44.593V93.887a69.5,69.5,0,1,0-139,0V108H67a8,8,0,0,0-8,8v30a8,8,0,0,0,8,8H81V270.043A113.5,113.5,0,0,0,11.682,374.615c0,62.332,51.079,113.043,113.863,113.043,62.25,0,112.894-50.711,112.894-113.043a110.742,110.742,0,0,0-22.158-66.07A118.985,118.985,0,0,0,168,270.094V154h14a8,8,0,0,0,8-8V116a8,8,0,0,0-8-8H135V93.887a53.5,53.5,0,1,1,107,0v58.188c0,33.411,27.589,60.593,61,60.593s61-27.182,61-60.593V133.052a31,31,0,1,1,62,0V136H377.1a8.014,8.014,0,0,0-8.1,7.92v30a8.151,8.151,0,0,0,8.1,8.08H391V444.584c0,23.751,19.749,43.074,43.5,43.074S478,468.335,478,444.584V182h14a8.066,8.066,0,0,0,8-8.08v-30A7.929,7.929,0,0,0,492,136ZM125.545,471.658c-53.962,0-97.863-43.533-97.863-97.043a97.591,97.591,0,0,1,.563-10.338c6.385.885,10.471,2.879,15.026,5.113,6.913,3.39,14.749,7.234,29.688,7.234s22.775-3.844,29.688-7.234c6.126-3,11.417-5.6,22.644-5.6s16.519,2.594,22.645,5.6c6.914,3.39,14.75,7.234,29.69,7.234s22.776-3.844,29.69-7.234c4.427-2.171,8.419-4.121,14.517-5.04a89.523,89.523,0,0,1,.606,10.265A97.078,97.078,0,0,1,125.545,471.658ZM157.231,283.02a101.365,101.365,0,0,1,61.4,65.641c-8.057,1.326-13.452,3.957-18.358,6.363-6.126,3-11.417,5.6-22.645,5.6s-16.519-2.6-22.645-5.6c-6.914-3.39-14.75-7.233-29.69-7.233s-22.775,3.843-29.688,7.233c-6.126,3-11.417,5.6-22.644,5.6s-16.517-2.6-22.643-5.6c-5.05-2.476-10.616-5.2-19.086-6.484a97.153,97.153,0,0,1,60.478-65.5A8,8,0,0,0,97,275.514V154h55V275.514A8,8,0,0,0,157.231,283.02ZM174,138H75V124h99ZM434.5,471.658c-14.929,0-27.5-12.145-27.5-27.074V352.878a44.824,44.824,0,0,0,5.019.324,29.765,29.765,0,0,0,14.453-3.469,15.585,15.585,0,0,1,14.67,0A30.166,30.166,0,0,0,455.68,353.2a37.093,37.093,0,0,0,6.32-.545v91.927C462,459.513,449.428,471.658,434.5,471.658ZM462,335.929A14.345,14.345,0,0,1,455.7,337.2a13.912,13.912,0,0,1-7.384-1.834,31.5,31.5,0,0,0-28.741,0,14.5,14.5,0,0,1-7.539,1.834,18.272,18.272,0,0,1-5.031-.714V182h55ZM484,166H385V152h99Z"/><text x="0" y="527" fill="#000000" font-size="5px" font-weight="bold" font-family="'Helvetica Neue', Helvetica, Arial-Unicode, Arial, Sans-serif">Created by Shastry</text><text x="0" y="532" fill="#000000" font-size="5px" font-weight="bold" font-family="'Helvetica Neue', Helvetica, Arial-Unicode, Arial, Sans-serif">from the Noun Project</text></svg>