<svg xmlns="http://www.w3.org/2000/svg" data-name="Layer 1" viewBox="0 0 100 125" x="0px" y="0px"><title>Untitled-2-24</title><path data-name="Compound Path" d="M85,15.68H15a5.53,5.53,0,0,0-5.55,5.53V71.39H90.58V21.21A5.53,5.53,0,0,0,85,15.68Zm0,49.46a.59.59,0,0,1-.6.59H15.58a.6.6,0,0,1-.6-.59V21.61a.59.59,0,0,1,.6-.59H84.42a.59.59,0,0,1,.6.59Z"/><path data-name="Path" d="M96.9,74.79a.22.22,0,0,1,.21.25,10.94,10.94,0,0,1-10.83,9.28H13.72A10.94,10.94,0,0,1,2.89,75a.22.22,0,0,1,.21-.25h36a.22.22,0,0,1,.22.21h0a2.35,2.35,0,0,0,2.35,2.35H58.36A2.36,2.36,0,0,0,60.71,75h0a.21.21,0,0,1,.21-.21Z"/><g data-name="Group"><g data-name="Group"><g data-name="Group"><path d="M39.77,38.09a1.33,1.33,0,0,0,.32-.64,3.9,3.9,0,0,0,.09-.78c0-.3,0-.69,0-1.18A4.08,4.08,0,0,0,40,33.8a1,1,0,0,0-.59-.5,1.07,1.07,0,0,0-.88.15l-11,6.72,0,0a1.11,1.11,0,0,0-.35.39,1.62,1.62,0,0,0-.2.55c0,.17-.06.39-.08.63s0,.53,0,.86a7.91,7.91,0,0,0,.1,1.48,1.52,1.52,0,0,0,.58,1l11.08,6.76a1.51,1.51,0,0,0,.58.22h.11a.87.87,0,0,0,.74-.45,2,2,0,0,0,.22-.78,10.1,10.1,0,0,0,.05-1.09c0-.51,0-.92,0-1.22a4.7,4.7,0,0,0-.13-.82,1.39,1.39,0,0,0-.39-.67,2.87,2.87,0,0,0-.46-.33L32,42.65l7.38-4.25A1.68,1.68,0,0,0,39.77,38.09Z"/></g><g data-name="Group"><path d="M73.22,41.78a4.63,4.63,0,0,0-.08-.64,1.86,1.86,0,0,0-.19-.55,1.23,1.23,0,0,0-.36-.39L61.5,33.45a1.07,1.07,0,0,0-.88-.15.92.92,0,0,0-.58.5,3.91,3.91,0,0,0-.24,1.69c0,.49,0,.88,0,1.18a6.27,6.27,0,0,0,.09.78,1.38,1.38,0,0,0,.32.64,2.44,2.44,0,0,0,.41.32L68,42.65,60.8,46.74a2.87,2.87,0,0,0-.46.33,1.39,1.39,0,0,0-.39.67,4,4,0,0,0-.12.82h0c0,.3,0,.71,0,1.22a10.56,10.56,0,0,0,0,1.09,2,2,0,0,0,.22.78.87.87,0,0,0,.74.45h.11a1.57,1.57,0,0,0,.6-.23L72.6,45.09a1.51,1.51,0,0,0,.55-1,7.82,7.82,0,0,0,.11-1.48A7,7,0,0,0,73.22,41.78Z"/></g></g><g data-name="Group"><path d="M47,59.4a1,1,0,0,1-.21.39,1.1,1.1,0,0,1-.36.25,2.6,2.6,0,0,1-.58.14,7.24,7.24,0,0,1-.88,0,6.42,6.42,0,0,1-1.08-.07,1.89,1.89,0,0,1-.64-.22.56.56,0,0,1-.25-.39,1.26,1.26,0,0,1,.07-.55l9.64-31.3a.93.93,0,0,1,.19-.4.83.83,0,0,1,.35-.25,2,2,0,0,1,.59-.14,7.23,7.23,0,0,1,.88,0,6.39,6.39,0,0,1,1.09.07,1.58,1.58,0,0,1,.62.23.53.53,0,0,1,.24.38,1.36,1.36,0,0,1,0,.55Z"/><path d="M45,60.43a6.8,6.8,0,0,1-1.12-.08,1.77,1.77,0,0,1-.71-.25.74.74,0,0,1-.34-.53,1.35,1.35,0,0,1,.07-.64l9.64-31.3a1.29,1.29,0,0,1,.23-.47,1,1,0,0,1,.44-.32,2.75,2.75,0,0,1,.64-.15,7.58,7.58,0,0,1,.9-.05,6.84,6.84,0,0,1,1.13.08,1.83,1.83,0,0,1,.7.26.74.74,0,0,1,.33.52,1.6,1.6,0,0,1-.06.63L47.19,59.47a1.44,1.44,0,0,1-.25.46,1.18,1.18,0,0,1-.44.3,2.62,2.62,0,0,1-.64.15A7.33,7.33,0,0,1,45,60.43Zm9.75-33.37a6.92,6.92,0,0,0-.85,0,2.14,2.14,0,0,0-.54.13.69.69,0,0,0-.27.19.73.73,0,0,0-.15.32L43.25,59.05a1.13,1.13,0,0,0,0,.46.3.3,0,0,0,.16.24,1.44,1.44,0,0,0,.56.2A7,7,0,0,0,45,60a6.47,6.47,0,0,0,.85-.05,2.16,2.16,0,0,0,.53-.13.65.65,0,0,0,.28-.18.88.88,0,0,0,.17-.32L56.42,28a1.56,1.56,0,0,0,0-.46.36.36,0,0,0-.16-.24,1.28,1.28,0,0,0-.54-.19A5.88,5.88,0,0,0,54.71,27.06Z"/></g></g><text x="0" y="115" fill="#000000" font-size="5px" font-weight="bold" font-family="'Helvetica Neue', Helvetica, Arial-Unicode, Arial, Sans-serif">Created by Arfan Khan Kamol</text><text x="0" y="120" fill="#000000" font-size="5px" font-weight="bold" font-family="'Helvetica Neue', Helvetica, Arial-Unicode, Arial, Sans-serif">from the Noun Project</text></svg>