<svg xmlns="http://www.w3.org/2000/svg" xmlns:xlink="http://www.w3.org/1999/xlink" version="1.1" x="0px" y="0px" viewBox="0 0 100 125" enable-background="new 0 0 100 100" xml:space="preserve"><path d="M61.684,53.689c-0.165,0.072-0.329,0.141-0.498,0.224c-0.499,0.211-0.972,0.537-1.481,0.839  c-0.469,0.362-0.996,0.691-1.432,1.147c-0.48,0.412-0.894,0.899-1.289,1.409c-0.439,0.479-0.699,1.078-1.062,1.607  c-0.302,0.56-0.507,1.157-0.744,1.718c-0.144,0.587-0.249,1.164-0.333,1.71c-0.026,0.178-0.026,0.349-0.033,0.522  c-0.724-1.194-1.372-2.442-2.327-3.483c-1.072-1.386-2.199-2.708-3.501-3.826c-1.184-1.237-2.616-2.131-3.889-3.113  c-0.704-0.418-1.382-0.851-2.057-1.253c-1.934-37.328-40.266-23.76-40.266-23.76c8.926,39.033,35.77,27.729,39.815,25.777  c0.422,0.307,0.845,0.618,1.278,0.927c1.113,1.022,2.375,1.946,3.365,3.179c1.112,1.117,2.035,2.41,2.9,3.738  c0.962,1.258,1.469,2.801,2.189,4.153c0.541,1.449,0.97,2.915,1.47,4.288c0.349,1.432,0.661,2.824,1.061,4.131  c0.341,1.321,0.428,2.628,0.685,3.813c0.221,1.192,0.466,2.295,0.495,3.292c0.092,0.993,0.192,1.868,0.302,2.594  c0.181,1.451,0.351,2.304,0.351,2.304l0.004,0.02c0.013,0.064,0.06,0.119,0.127,0.139c0.097,0.029,0.199-0.026,0.228-0.122  c0,0,0.245-0.809,0.557-2.266c0.293-1.457,0.899-3.561,0.815-6.153c-0.016-1.291,0.091-2.713-0.123-4.194  c-0.229-1.48-0.515-3.048-0.905-4.642c-0.535-1.266-1.018-2.596-1.633-3.882c0.032-0.183,0.069-0.371,0.106-0.568  c0.095-0.436,0.127-0.918,0.252-1.404c0.148-0.482,0.262-0.994,0.391-1.522c0.184-0.506,0.342-1.046,0.541-1.579  c0.266-0.498,0.452-1.066,0.806-1.53c0.319-0.489,0.659-0.965,1.068-1.377c0.365-0.454,0.83-0.794,1.24-1.171  c0.451-0.323,0.879-0.659,1.326-0.912c0.182-0.114,0.361-0.217,0.539-0.316c26.512,16.898,33.451-18.241,33.451-18.241  C64.819,24.346,61.903,50.922,61.684,53.689z"/><text x="0" y="115" fill="#000000" font-size="5px" font-weight="bold" font-family="'Helvetica Neue', Helvetica, Arial-Unicode, Arial, Sans-serif">Created by jayati bandyopadhyay</text><text x="0" y="120" fill="#000000" font-size="5px" font-weight="bold" font-family="'Helvetica Neue', Helvetica, Arial-Unicode, Arial, Sans-serif">from the Noun Project</text></svg>