<svg xmlns="http://www.w3.org/2000/svg" xmlns:xlink="http://www.w3.org/1999/xlink" xml:space="preserve" version="1.1" style="shape-rendering:geometricPrecision;text-rendering:geometricPrecision;image-rendering:optimizeQuality;" viewBox="0 0 289 436.25" x="0px" y="0px" fill-rule="evenodd" clip-rule="evenodd"><defs><style type="text/css">
   
    .fil0 {fill:black}
   
  </style></defs><g><path class="fil0" d="M113 148l-104 129c-35,49 39,101 74,53l91 -138 -61 -44z"/><path class="fil0" d="M118 41c-24,33 -17,78 16,102l37 27c38,27 80,15 106,-21 16,-23 12,-63 8,-90 -2,-8 -8,-9 -13,-3l-36 49 -49 3 -11 -47c12,-17 24,-33 36,-50 4,-6 1,-12 -7,-11 -35,6 -65,11 -87,41z"/></g><text x="0" y="364" fill="#000000" font-size="5px" font-weight="bold" font-family="'Helvetica Neue', Helvetica, Arial-Unicode, Arial, Sans-serif">Created by Humantech</text><text x="0" y="369" fill="#000000" font-size="5px" font-weight="bold" font-family="'Helvetica Neue', Helvetica, Arial-Unicode, Arial, Sans-serif">from the Noun Project</text></svg>