<svg xmlns="http://www.w3.org/2000/svg" xmlns:xlink="http://www.w3.org/1999/xlink" version="1.1" x="0px" y="0px" viewBox="0 0 512 640" enable-background="new 0 0 512 512" xml:space="preserve"><metadata><?xpacket begin="&#65279;" id="W5M0MpCehiHzreSzNTczkc9d"?><x:xmpmeta xmlns:x="adobe:ns:meta/" x:xmptk="Adobe XMP Core 5.3-c011 66.145661, 2012/02/06-14:56:27        "/><?xpacket end="w"?></metadata><g><g><path d="M433.049,91.699c-5.857-5.857-15.354-5.857-21.213,0c-5.857,5.856-5.857,15.354,0,21.213    c38.154,38.154,59.168,88.971,59.168,143.088s-21.014,104.934-59.168,143.088c-5.857,5.857-5.857,15.355,0,21.213    c2.93,2.931,6.768,4.396,10.607,4.396c3.838,0,7.678-1.465,10.604-4.396c43.822-43.82,67.955-102.17,67.955-164.301    S476.871,135.52,433.049,91.699z"/><path d="M384.971,139.781c-5.856-5.859-15.354-5.857-21.213-0.002c-5.859,5.858-5.859,15.354,0,21.215    c52.385,52.387,52.385,137.627,0,190.014c-5.859,5.857-5.859,15.355,0,21.213c2.928,2.928,6.768,4.394,10.605,4.394    c3.84,0,7.678-1.466,10.606-4.394C449.053,308.137,449.053,203.865,384.971,139.781z"/><path d="M336.891,187.859c-5.856-5.857-15.354-5.857-21.213,0c-5.857,5.857-5.858,15.355,0,21.213    c25.873,25.877,25.873,67.979,0,93.854c-5.858,5.857-5.858,15.355,0,21.214c2.928,2.928,6.769,4.393,10.605,4.393    c3.84,0,7.678-1.465,10.606-4.393C374.461,286.568,374.461,225.434,336.891,187.859z"/><path d="M10.997,197.451v117.102c0,8.285,6.716,15,15,15h76.418V182.451H25.997C17.712,182.451,10.997,189.166,10.997,197.451z"/><path d="M275.178,60.285c-5.231-2.484-11.432-1.729-15.918,1.936L132.415,165.83v180.34L259.26,449.779    c2.732,2.229,6.096,3.383,9.492,3.383c2.184,0,4.379-0.476,6.426-1.447c5.234-2.481,8.572-7.758,8.572-13.553V73.838    C283.75,68.045,280.412,62.768,275.178,60.285z"/></g></g><text x="0" y="527" fill="#000000" font-size="5px" font-weight="bold" font-family="'Helvetica Neue', Helvetica, Arial-Unicode, Arial, Sans-serif">Created by abderraouf omara</text><text x="0" y="532" fill="#000000" font-size="5px" font-weight="bold" font-family="'Helvetica Neue', Helvetica, Arial-Unicode, Arial, Sans-serif">from the Noun Project</text></svg>